<?xml version="1.0" encoding="utf-8"?>
<!-- Generator: Adobe Illustrator 27.5.0, SVG Export Plug-In . SVG Version: 6.00 Build 0)  -->
<svg version="1.1" id="Layer_1" xmlns="http://www.w3.org/2000/svg" xmlns:xlink="http://www.w3.org/1999/xlink" x="0px" y="0px"
	 viewBox="0 0 36 36" style="enable-background:new 0 0 36 36;" xml:space="preserve">
<style type="text/css">
	.st0{fill:#E11F26;}
	.st1{fill-rule:evenodd;clip-rule:evenodd;fill:#FFFFFF;}
</style>
<circle class="st0" cx="18" cy="18" r="16.8"/>
<path class="st1" d="M18,14L18,14C18,14,18,14,18,14C18,14,18,14,18,14L18,14c-5.6,0.1-11.3,2.4-10.7,7c0,0.2,0,0.5,0.1,0.6
	C7.7,22.1,8.3,22,8.6,22c0.5,0,4.2-0.1,4.4-0.1c0.2-0.1,0.4-0.2,0.4-0.4c0.2-1.1-0.9-2.3,0.6-2.8c0.3-0.1,2.1-0.3,3.9-0.4
	c1.8,0,3.6,0.3,3.9,0.4c1.5,0.5,0.3,1.7,0.6,2.8c0,0.2,0.2,0.4,0.4,0.4c0.2,0,3.9,0.1,4.4,0.1c0.4,0,0.9,0.1,1.2-0.4
	c0.1-0.2,0.1-0.5,0.1-0.6C29.2,16.4,23.6,14.1,18,14z"/>
</svg>
