<?xml version="1.0" encoding="utf-8"?>
<!-- Generator: Adobe Illustrator 24.1.2, SVG Export Plug-In . SVG Version: 6.00 Build 0)  -->
<svg version="1.1" id="Layer_1" xmlns="http://www.w3.org/2000/svg" xmlns:xlink="http://www.w3.org/1999/xlink" x="0px" y="0px"
	 viewBox="0 0 36 36" style="enable-background:new 0 0 36 36;" xml:space="preserve">
<style type="text/css">
	.st0{fill:#1B75BA;}
	.st1{fill:#FFFFFF;}
</style>
<circle class="st0" cx="18" cy="18" r="17.2"/>
<g>
	<path class="st1" d="M12.4,7.6L12.4,7.6c1.2,0,2.1,1,2.1,2.1l0,0c0,1.2-1,2.1-2.1,2.1h0c-1.2,0-2.1-1-2.1-2.1l0,0
		C10.3,8.5,11.3,7.6,12.4,7.6z"/>
	<path class="st1" d="M18,7.6L18,7.6c1.2,0,2.1,1,2.1,2.1l0,0c0,1.2-1,2.1-2.1,2.1l0,0c-1.2,0-2.1-1-2.1-2.1l0,0
		C15.9,8.5,16.8,7.6,18,7.6z"/>
	<path class="st1" d="M23.6,7.6L23.6,7.6c1.2,0,2.1,1,2.1,2.1l0,0c0,1.2-1,2.1-2.1,2.1l0,0c-1.2,0-2.1-1-2.1-2.1l0,0
		C21.4,8.5,22.4,7.6,23.6,7.6z"/>
	<path class="st1" d="M12.4,12.9L12.4,12.9c1.2,0,2.1,1,2.1,2.1l0,0c0,1.2-1,2.1-2.1,2.1h0c-1.2,0-2.1-1-2.1-2.1l0,0
		C10.3,13.9,11.3,12.9,12.4,12.9z"/>
	<path class="st1" d="M18,12.9L18,12.9c1.2,0,2.1,1,2.1,2.1l0,0c0,1.2-1,2.1-2.1,2.1l0,0c-1.2,0-2.1-1-2.1-2.1l0,0
		C15.9,13.9,16.8,12.9,18,12.9z"/>
	<path class="st1" d="M23.6,12.9L23.6,12.9c1.2,0,2.1,1,2.1,2.1l0,0c0,1.2-1,2.1-2.1,2.1l0,0c-1.2,0-2.1-1-2.1-2.1l0,0
		C21.4,13.9,22.4,12.9,23.6,12.9z"/>
	<path class="st1" d="M12.4,18.3L12.4,18.3c1.2,0,2.1,1,2.1,2.1l0,0c0,1.2-1,2.1-2.1,2.1h0c-1.2,0-2.1-1-2.1-2.1l0,0
		C10.3,19.2,11.3,18.3,12.4,18.3z"/>
	<path class="st1" d="M18,18.3L18,18.3c1.2,0,2.1,1,2.1,2.1l0,0c0,1.2-1,2.1-2.1,2.1l0,0c-1.2,0-2.1-1-2.1-2.1l0,0
		C15.9,19.2,16.8,18.3,18,18.3z"/>
	<path class="st1" d="M18,24.1L18,24.1c1.2,0,2.1,1,2.1,2.1l0,0c0,1.2-1,2.1-2.1,2.1l0,0c-1.2,0-2.1-1-2.1-2.1l0,0
		C15.9,25.1,16.8,24.1,18,24.1z"/>
	<path class="st1" d="M23.6,18.3L23.6,18.3c1.2,0,2.1,1,2.1,2.1l0,0c0,1.2-1,2.1-2.1,2.1l0,0c-1.2,0-2.1-1-2.1-2.1l0,0
		C21.4,19.2,22.4,18.3,23.6,18.3z"/>
</g>
</svg>
