<?xml version="1.0" encoding="utf-8"?>
<!-- Generator: Adobe Illustrator 27.5.0, SVG Export Plug-In . SVG Version: 6.00 Build 0)  -->
<svg version="1.1" id="Layer_1" xmlns="http://www.w3.org/2000/svg" xmlns:xlink="http://www.w3.org/1999/xlink" x="0px" y="0px"
	 viewBox="0 0 36 36" style="enable-background:new 0 0 36 36;" xml:space="preserve">
<style type="text/css">
	.st0{fill:#EFEFEF;stroke:#1B75BA;stroke-width:0.5;stroke-miterlimit:10;}
	.st1{fill:#1B75BA;}
</style>
<circle class="st0" cx="18" cy="18" r="16.8"/>
<g id="layer1" transform="translate(0,-289.0625)">
	<path id="path853" class="st1" d="M18,298.6c-5,0-8.9,4.6-8.9,10.2c0,1.5,0.3,3,0.8,4.3h1.2c0.5,1.6,1.6,2.5,2.6,2.4
		c1.3-0.2,2.1-2.1,1.8-4.3l0,0c-0.3-2.1-1.4-3.7-2.7-3.7c-0.1,0-0.2,0-0.2,0c-0.9,0.1-1.6,1.1-1.8,2.5c0-0.4-0.1-0.8-0.1-1.1
		c0-4.8,3.3-8.6,7.2-8.6s7.2,3.8,7.2,8.6c0,0.4,0,0.8-0.1,1.1c-0.2-1.4-0.9-2.4-1.8-2.5c-0.1,0-0.2,0-0.2,0c-1.2,0-2.4,1.6-2.7,3.7
		c-0.3,2.2,0.5,4.2,1.8,4.3l0,0c1,0.1,2.1-0.8,2.6-2.4H26c0.5-1.3,0.8-2.8,0.8-4.3C26.9,303.3,23,298.6,18,298.6z"/>
</g>
</svg>
