<?xml version="1.0" encoding="utf-8"?>
<!-- Generator: Adobe Illustrator 27.8.0, SVG Export Plug-In . SVG Version: 6.00 Build 0)  -->
<svg version="1.1" id="Layer_1" xmlns="http://www.w3.org/2000/svg" xmlns:xlink="http://www.w3.org/1999/xlink" x="0px" y="0px"
	 viewBox="0 0 36 36" style="enable-background:new 0 0 36 36;" xml:space="preserve">
<style type="text/css">
	.st0{fill:#1B75BA;}
	.st1{fill-rule:evenodd;clip-rule:evenodd;fill:#FFFFFF;}
</style>
<circle class="st0" cx="18" cy="18" r="16.8"/>
<path class="st1" d="M13.7,22.2L13.7,22.2L13.7,22.2C13.8,22.3,13.8,22.3,13.7,22.2L13.7,22.2c4.1,3.9,9.7,6.3,12.5,2.6
	c0.1-0.1,0.3-0.3,0.4-0.5c0.2-0.6-0.2-0.9-0.5-1.2c-0.4-0.4-3-2.9-3.2-3.1c-0.2-0.1-0.5-0.1-0.6,0c-0.9,0.6-1,2.2-2.4,1.6
	c-0.3-0.1-1.7-1.2-3-2.5s-2.4-2.7-2.5-3c-0.7-1.4,1-1.5,1.6-2.4c0.1-0.2,0.1-0.4,0-0.6c-0.1-0.2-2.7-2.8-3.1-3.2
	c-0.3-0.3-0.6-0.8-1.2-0.5c-0.2,0.1-0.4,0.3-0.5,0.4C7.5,12.6,9.9,18.2,13.7,22.2z"/>
</svg>
