<?xml version="1.0" encoding="utf-8"?>
<!-- Generator: Adobe Illustrator 27.5.0, SVG Export Plug-In . SVG Version: 6.00 Build 0)  -->
<svg version="1.1" id="Layer_1" xmlns="http://www.w3.org/2000/svg" xmlns:xlink="http://www.w3.org/1999/xlink" x="0px" y="0px"
	 viewBox="0 0 36 36" style="enable-background:new 0 0 36 36;" xml:space="preserve">
<style type="text/css">
	.st0{fill:#EFEFEF;stroke:#1B75BA;stroke-width:0.5;stroke-miterlimit:10;}
	.st1{fill-rule:evenodd;clip-rule:evenodd;fill:#1B75BA;}
</style>
<circle class="st0" cx="18" cy="18" r="16.8"/>
<g>
	<path class="st1" d="M12.9,22.2L12.9,22.2L12.9,22.2L12.9,22.2L12.9,22.2c4,3.9,9.7,6.3,12.5,2.6c0.1-0.1,0.4-0.4,0.4-0.5
		c0.1-0.6-0.4-0.9-0.6-1.1c-0.4-0.4-3-2.9-3.2-3s-0.4-0.1-0.6,0c-0.9,0.6-1,2.3-2.4,1.6c-0.3-0.1-1.7-1.3-3-2.5
		c-1.3-1.3-2.3-2.8-2.5-3c-0.7-1.4,1-1.4,1.6-2.4c0.1-0.1,0.1-0.4,0-0.6c-0.1-0.1-2.7-2.8-3-3.2c-0.3-0.3-0.6-0.7-1.1-0.6
		c-0.2,0.1-0.4,0.3-0.5,0.4C6.6,12.5,9,18.1,12.9,22.2z"/>
	<path class="st1" d="M19.3,11.2h2.2c0.4,0,0.6,0.5,0.3,0.8l-3.3,3.3c-0.4,0.4-0.4,0.9,0,1.3s0.9,0.4,1.3,0l3.3-3.3
		c0.3-0.3,0.8-0.1,0.8,0.3v2.2c0,0.5,0.4,0.9,0.9,0.9s0.9-0.4,0.9-0.9v-4.6c0-1-0.8-1.8-1.8-1.8c-0.7,0,0,0-4.6,0
		c-0.5,0-0.9,0.4-0.9,0.9C18.4,10.8,18.8,11.2,19.3,11.2"/>
</g>
</svg>
